<svg width="1840" height="1438" viewBox="0 0 1840 1438" fill="none" xmlns="http://www.w3.org/2000/svg">
<circle cx="185.703" cy="344.145" r="120.534" transform="rotate(-30 185.703 344.145)" stroke="black" stroke-width="30"/>
<line x1="217.968" y1="497.575" x2="302.444" y2="448.802" stroke="black" stroke-width="30" stroke-linecap="round"/>
<line x1="235.113" y1="527.27" x2="319.589" y2="478.498" stroke="black" stroke-width="30" stroke-linecap="round"/>
<line x1="252.258" y1="556.966" x2="336.734" y2="508.194" stroke="black" stroke-width="30" stroke-linecap="round"/>
<line x1="269.403" y1="586.662" x2="353.879" y2="537.89" stroke="black" stroke-width="30" stroke-linecap="round"/>
<path d="M316.153 570.749C298.801 580.695 298.802 580.696 298.803 580.697C298.804 580.699 298.806 580.702 298.808 580.705C298.812 580.713 298.818 580.723 298.826 580.738C298.843 580.766 298.867 580.809 298.9 580.866C298.965 580.98 299.063 581.151 299.192 581.376C299.451 581.828 299.837 582.502 300.347 583.39C301.365 585.167 302.876 587.802 304.844 591.234C308.781 598.099 314.548 608.157 321.874 620.925C336.526 646.463 357.409 682.848 382.337 726.238C432.191 813.017 498.226 927.821 562.941 1039.91L597.582 1019.91C532.887 907.855 466.867 793.078 417.02 706.312C392.097 662.93 371.218 626.552 356.57 601.02C349.246 588.254 343.479 578.2 339.544 571.337C337.576 567.905 336.067 565.272 335.049 563.497C334.54 562.609 334.154 561.936 333.895 561.484C333.766 561.259 333.669 561.089 333.603 560.975C333.571 560.918 333.546 560.875 333.53 560.847C333.522 560.833 333.516 560.822 333.512 560.815C333.51 560.811 333.508 560.809 333.507 560.807C333.506 560.805 333.506 560.804 316.153 570.749ZM562.941 1039.91C598.581 1101.64 653.249 1133.3 712.288 1141.45C770.684 1149.5 832.642 1134.54 885.112 1104.91C937.576 1075.29 982.232 1030.05 1004.69 975.51C1027.42 920.303 1026.86 856.647 990.237 793.213L955.596 813.213C985.853 865.62 985.832 916.24 967.699 960.282C949.292 1004.99 911.689 1043.97 865.446 1070.08C819.208 1096.19 766.011 1108.48 717.752 1101.82C670.135 1095.25 626.649 1070.26 597.582 1019.91L562.941 1039.91ZM990.237 793.213C961.354 743.186 923.534 712.948 881.996 698.792C840.755 684.737 797.598 687.117 758.561 699.119C719.577 711.105 683.838 732.922 656.65 759.107C629.725 785.039 609.581 816.865 604.929 849.487L644.529 855.133C647.496 834.325 661.318 810.147 684.399 787.917C707.217 765.94 737.523 747.435 770.316 737.353C803.054 727.288 837.404 725.854 869.092 736.654C900.483 747.352 931.014 770.636 955.596 813.213L990.237 793.213Z" fill="black"/>
<path d="M623.348 803.835L605.66 848.469L806.522 928.068L623.348 803.835Z" fill="black" stroke="black"/>
<path d="M1185.98 790.808C1197.67 764.886 1215.46 744.809 1239.35 730.577C1263.74 716.345 1293.48 709.229 1328.55 709.229V764.886H1314.06C1275.43 764.886 1244.43 775.306 1221.05 796.145C1197.67 816.985 1185.98 851.802 1185.98 900.597V1133.14H1132.61V716.854H1185.98V790.808ZM1591.05 1139.24C1551.92 1139.24 1516.59 1130.59 1485.08 1113.31C1454.07 1095.52 1429.42 1070.62 1411.12 1038.6C1393.33 1006.07 1384.44 968.199 1384.44 924.995C1384.44 881.791 1393.59 844.178 1411.89 812.156C1430.18 779.626 1455.09 754.72 1486.6 737.439C1518.12 719.649 1553.44 710.754 1592.58 710.754C1631.72 710.754 1667.04 719.649 1698.56 737.439C1730.58 754.72 1755.48 779.626 1773.27 812.156C1791.57 844.178 1800.72 881.791 1800.72 924.995C1800.72 967.69 1791.57 1005.3 1773.27 1037.83C1754.98 1070.36 1729.82 1095.52 1697.79 1113.31C1665.77 1130.59 1630.19 1139.24 1591.05 1139.24ZM1591.05 1092.73C1618.5 1092.73 1643.92 1086.63 1667.3 1074.43C1690.68 1061.72 1709.48 1042.92 1723.72 1018.01C1738.46 992.596 1745.83 961.591 1745.83 924.995C1745.83 888.398 1738.71 857.647 1724.48 832.742C1710.25 807.328 1691.44 788.521 1668.06 776.322C1644.68 763.615 1619.26 757.262 1591.82 757.262C1564.37 757.262 1538.96 763.615 1515.57 776.322C1492.19 788.521 1473.39 807.328 1459.16 832.742C1445.43 857.647 1438.57 888.398 1438.57 924.995C1438.57 961.591 1445.43 992.596 1459.16 1018.01C1473.39 1042.92 1491.94 1061.72 1514.81 1074.43C1538.19 1086.63 1563.61 1092.73 1591.05 1092.73Z" fill="black"/>
</svg>
