<svg width="62" height="90" viewBox="0 0 62 90" fill="none" xmlns="http://www.w3.org/2000/svg">
<path fill-rule="evenodd" clip-rule="evenodd" d="M13.453 55.307C15.16 56.516 16.139 58.34 16.139 60.356C16.143 63.822 18.967 66.642 22.433 66.642H39.561C43.029 66.642 45.852 63.821 45.855 60.352C45.855 58.36 46.774 56.537 48.316 55.471C56.533 49.775 61.439 40.418 61.439 30.44C61.439 13.656 47.78 0 30.99 0C29.847 0 28.685 0.0640001 27.535 0.191C13.297 1.775 2.009 13.285 0.693998 27.558C-0.320004 38.585 4.451 48.96 13.453 55.307ZM4.677 27.925C5.819 15.534 15.618 5.542 27.975 4.167C28.978 4.056 29.993 4 30.99 4C45.574 4 57.439 15.861 57.439 30.44C57.439 39.107 53.177 47.235 46.04 52.182C43.419 53.992 41.854 57.046 41.854 60.35C41.853 61.614 40.824 62.642 39.56 62.642H22.433C21.17 62.642 20.141 61.614 20.139 60.309C20.139 57.074 18.504 53.984 15.762 52.04C7.939 46.525 3.796 37.51 4.677 27.925ZM23.993 29.679L23.9944 29.7002C23.9989 29.7648 24.0032 29.828 24.014 29.892C24.025 29.956 24.042 30.017 24.059 30.078C24.076 30.141 24.093 30.203 24.117 30.264C24.14 30.325 24.168 30.382 24.197 30.44C24.226 30.498 24.255 30.556 24.29 30.611C24.324 30.666 24.363 30.716 24.403 30.767L24.4031 30.7671C24.4421 30.8181 24.481 30.869 24.526 30.916C24.5676 30.9611 24.6138 31.0009 24.6599 31.0407L24.681 31.059C24.6942 31.0706 24.7064 31.0828 24.7187 31.0951L24.7187 31.0951C24.7371 31.1135 24.7554 31.1318 24.777 31.148C24.782 31.1515 24.7872 31.1538 24.7925 31.156C24.7977 31.1583 24.803 31.1605 24.808 31.164C24.96 31.275 25.128 31.361 25.309 31.426C25.347 31.439 25.383 31.45 25.422 31.461C25.599 31.513 25.783 31.549 25.976 31.549H25.979H25.98H25.981H32.006L24.382 41.681C23.718 42.564 23.895 43.818 24.778 44.482C25.138 44.753 25.56 44.884 25.979 44.884C26.586 44.884 27.186 44.609 27.579 44.087L37.612 30.752C37.6149 30.7479 37.6175 30.7436 37.62 30.7394L37.625 30.7305L37.625 30.7304C37.629 30.7232 37.633 30.716 37.638 30.709C37.6761 30.6555 37.7084 30.5979 37.7409 30.5399L37.741 30.5399L37.741 30.5398L37.741 30.5398L37.751 30.522C37.7591 30.5074 37.7675 30.4929 37.7759 30.4783C37.7973 30.4412 37.8187 30.4041 37.836 30.366C37.8567 30.3199 37.8722 30.272 37.8878 30.2237L37.8948 30.2019L37.902 30.18L37.9155 30.1403C37.9323 30.0911 37.9489 30.0425 37.96 29.992C37.9694 29.9507 37.9746 29.9083 37.9798 29.8659L37.983 29.8403L37.986 29.818L37.986 29.8179C37.996 29.7449 38.006 29.672 38.008 29.598C38.008 29.5895 38.0092 29.5815 38.0105 29.5735C38.0111 29.5694 38.0118 29.5653 38.0122 29.5612C38.0127 29.5572 38.013 29.5532 38.013 29.549C38.013 29.5231 38.0095 29.4982 38.0061 29.4734C38.0048 29.4643 38.0035 29.4552 38.0024 29.446C38.0014 29.4377 38.0006 29.4294 38 29.421L37.9985 29.3998C37.9941 29.3352 37.9898 29.272 37.979 29.208C37.968 29.1441 37.951 29.0833 37.9341 29.0224L37.9341 29.0223L37.934 29.0222L37.934 29.0221L37.934 29.022C37.917 28.959 37.9 28.897 37.876 28.836C37.853 28.775 37.825 28.718 37.796 28.66C37.767 28.602 37.738 28.544 37.703 28.489C37.669 28.434 37.63 28.384 37.59 28.333L37.59 28.333C37.551 28.282 37.512 28.231 37.467 28.184C37.4254 28.1389 37.3792 28.0991 37.3331 28.0593L37.312 28.041C37.2988 28.0294 37.2865 28.0172 37.2743 28.0049L37.2743 28.0049C37.2559 27.9865 37.2376 27.9682 37.216 27.952C37.209 27.947 37.2018 27.943 37.1946 27.9391L37.1945 27.939C37.1872 27.935 37.18 27.931 37.173 27.926C37.1224 27.8898 37.0683 27.8592 37.0137 27.8284L37.0136 27.8283L37.0135 27.8283L37.0134 27.8282L36.983 27.811C36.9677 27.8026 36.9527 27.794 36.9376 27.7854C36.9024 27.7652 36.8674 27.7451 36.831 27.729C36.7806 27.7066 36.7277 27.6893 36.6748 27.6721L36.6747 27.6721L36.6747 27.672L36.6746 27.672L36.635 27.659C36.6174 27.6533 36.6 27.6474 36.5827 27.6415L36.5826 27.6415C36.5418 27.6276 36.5014 27.6138 36.46 27.604C36.4105 27.5928 36.3591 27.5868 36.3079 27.5807L36.269 27.576L36.2652 27.5755L36.2651 27.5755C36.1994 27.5667 36.1347 27.558 36.068 27.556C36.0623 27.556 36.0569 27.5556 36.0515 27.5549L36.0405 27.5535C36.0315 27.5522 36.0225 27.551 36.013 27.551H29.988L37.612 17.419C38.276 16.536 38.099 15.282 37.216 14.618C36.334 13.955 35.08 14.132 34.415 15.014L24.382 28.348C24.377 28.355 24.373 28.3623 24.369 28.3695C24.365 28.3768 24.361 28.384 24.356 28.391C24.3179 28.4445 24.2856 28.5021 24.253 28.5601L24.253 28.5601L24.253 28.5602L24.253 28.5602L24.243 28.578C24.2348 28.5926 24.2265 28.6071 24.2181 28.6216L24.2181 28.6217C24.1966 28.6588 24.1752 28.6959 24.158 28.734C24.1372 28.7801 24.1218 28.828 24.1062 28.8763L24.1061 28.8766L24.1002 28.8951L24.092 28.92L24.0785 28.9597L24.0785 28.9597C24.0617 29.0089 24.045 29.0575 24.034 29.108C24.0246 29.1493 24.0193 29.1917 24.0141 29.2341C24.0122 29.2501 24.0102 29.2661 24.008 29.282C23.998 29.355 23.988 29.428 23.986 29.502C23.986 29.5105 23.9847 29.5185 23.9835 29.5265C23.9822 29.5345 23.981 29.5425 23.981 29.551C23.9804 29.5762 23.9838 29.6004 23.9871 29.6245L23.9894 29.6415C23.9903 29.6483 23.9911 29.6551 23.9918 29.6619C23.9923 29.6676 23.9927 29.6733 23.993 29.679ZM41.392 74.433H20.603C19.498 74.433 18.603 73.537 18.603 72.433C18.603 71.329 19.499 70.433 20.603 70.433H41.392C42.496 70.433 43.392 71.329 43.392 72.433C43.392 73.537 42.496 74.433 41.392 74.433ZM20.603 82.35H41.392C42.496 82.35 43.392 81.454 43.392 80.35C43.392 79.246 42.496 78.35 41.392 78.35H20.603C19.499 78.35 18.603 79.246 18.603 80.35C18.603 81.454 19.498 82.35 20.603 82.35ZM36.014 86C37.118 86 38.014 86.896 38.014 88C38.014 89.104 37.118 90 36.013 90H25.98C24.876 90 23.98 89.104 23.98 88C23.98 86.896 24.876 86 25.98 86H36.014Z" fill="black"/>
</svg>
