<svg width="219" height="206" viewBox="0 0 219 206" fill="none" xmlns="http://www.w3.org/2000/svg">
<path fill-rule="evenodd" clip-rule="evenodd" d="M79.0074 37.0774C89.2461 37.0774 97.5462 28.7773 97.5462 18.5387C97.5462 8.30006 89.2461 0 79.0074 0C68.7688 0 60.4688 8.30006 60.4688 18.5387C60.4688 28.7773 68.7688 37.0774 79.0074 37.0774ZM18.5392 37.0786C28.7778 37.0786 37.0779 28.7786 37.0779 18.5399C37.0779 8.30128 28.7778 0.0012207 18.5392 0.0012207C8.30055 0.0012207 0.000488281 8.30128 0.000488281 18.5399C0.000488281 28.7786 8.30055 37.0786 18.5392 37.0786ZM139.475 28.313C144.873 28.313 149.25 23.9369 149.25 18.5387C149.25 13.1405 144.873 8.76436 139.475 8.76436C134.077 8.76436 129.701 13.1405 129.701 18.5387C129.701 23.9369 134.077 28.313 139.475 28.313ZM139.475 37.0774C149.714 37.0774 158.014 28.7773 158.014 18.5387C158.014 8.30006 149.714 0 139.475 0C129.237 0 120.937 8.30006 120.937 18.5387C120.937 28.7773 129.237 37.0774 139.475 37.0774ZM209.717 18.5387C209.717 23.9369 205.341 28.313 199.943 28.313C194.545 28.313 190.169 23.9369 190.169 18.5387C190.169 13.1405 194.545 8.76436 199.943 8.76436C205.341 8.76436 209.717 13.1405 209.717 18.5387ZM218.482 18.5387C218.482 28.7773 210.182 37.0774 199.943 37.0774C189.704 37.0774 181.404 28.7773 181.404 18.5387C181.404 8.30006 189.704 0 199.943 0C210.182 0 218.482 8.30006 218.482 18.5387ZM37.0774 74.7552C37.0774 84.9939 28.7773 93.294 18.5387 93.294C8.30006 93.294 0 84.9939 0 74.7552C0 64.5166 8.30006 56.2166 18.5387 56.2166C28.7773 56.2166 37.0774 64.5166 37.0774 74.7552ZM79.0074 93.294C89.2461 93.294 97.5462 84.9939 97.5462 74.7552C97.5462 64.5166 89.2461 56.2166 79.0074 56.2166C68.7688 56.2166 60.4688 64.5166 60.4688 74.7552C60.4688 84.9939 68.7688 93.294 79.0074 93.294ZM158.014 74.7552C158.014 84.9939 149.714 93.294 139.475 93.294C129.237 93.294 120.937 84.9939 120.937 74.7552C120.937 64.5166 129.237 56.2166 139.475 56.2166C149.714 56.2166 158.014 64.5166 158.014 74.7552ZM199.943 93.294C210.182 93.294 218.482 84.9939 218.482 74.7552C218.482 64.5166 210.182 56.2166 199.943 56.2166C189.704 56.2166 181.404 64.5166 181.404 74.7552C181.404 84.9939 189.704 93.294 199.943 93.294ZM37.0774 130.972C37.0774 141.21 28.7773 149.51 18.5387 149.51C8.30006 149.51 0 141.21 0 130.972C0 120.733 8.30006 112.433 18.5387 112.433C28.7773 112.433 37.0774 120.733 37.0774 130.972ZM79.0074 149.51C89.2461 149.51 97.5462 141.21 97.5462 130.972C97.5462 120.733 89.2461 112.433 79.0074 112.433C68.7688 112.433 60.4688 120.733 60.4688 130.972C60.4688 141.21 68.7688 149.51 79.0074 149.51ZM158.014 130.972C158.014 141.21 149.714 149.51 139.475 149.51C129.237 149.51 120.937 141.21 120.937 130.972C120.937 120.733 129.237 112.433 139.475 112.433C149.714 112.433 158.014 120.733 158.014 130.972ZM199.943 149.51C210.182 149.51 218.482 141.21 218.482 130.972C218.482 120.733 210.182 112.433 199.943 112.433C189.704 112.433 181.404 120.733 181.404 130.972C181.404 141.21 189.704 149.51 199.943 149.51ZM37.0774 187.188C37.0774 197.426 28.7773 205.726 18.5387 205.726C8.30006 205.726 0 197.426 0 187.188C0 176.949 8.30006 168.649 18.5387 168.649C28.7773 168.649 37.0774 176.949 37.0774 187.188ZM79.0074 205.726C89.2461 205.726 97.5462 197.426 97.5462 187.188C97.5462 176.949 89.2461 168.649 79.0074 168.649C68.7688 168.649 60.4688 176.949 60.4688 187.188C60.4688 197.426 68.7688 205.726 79.0074 205.726ZM158.014 187.188C158.014 197.426 149.714 205.726 139.475 205.726C129.237 205.726 120.937 197.426 120.937 187.188C120.937 176.949 129.237 168.649 139.475 168.649C149.714 168.649 158.014 176.949 158.014 187.188ZM199.943 205.726C210.182 205.726 218.482 197.426 218.482 187.188C218.482 176.949 210.182 168.649 199.943 168.649C189.704 168.649 181.404 176.949 181.404 187.188C181.404 197.426 189.704 205.726 199.943 205.726Z" fill="white"/>
</svg>
