<svg width="419" height="705" viewBox="0 0 419 705" fill="none" xmlns="http://www.w3.org/2000/svg">
<path opacity="0.03" fill-rule="evenodd" clip-rule="evenodd" d="M419 0.369904H45.2007C20.243 0.369904 0.0108643 20.6021 0.0108643 45.5598V271.46C0.0108643 288.082 8.98523 302.608 22.3529 310.456V339.09C8.98522 346.939 0.0108643 361.465 0.0108643 378.087L0.0108643 704.998H75.8901C75.435 702.48 75.1973 699.885 75.1973 697.235C75.1973 673.281 94.6162 653.862 118.571 653.862C142.525 653.862 161.944 673.281 161.944 697.235C161.944 699.885 161.706 702.48 161.251 704.998H195.696C195.241 702.48 195.003 699.885 195.003 697.235C195.003 673.281 214.422 653.862 238.377 653.862C262.331 653.862 281.75 673.281 281.75 697.235C281.75 699.885 281.512 702.48 281.057 704.998H315.502C315.047 702.48 314.809 699.885 314.809 697.235C314.809 673.281 334.228 653.862 358.182 653.862C382.137 653.862 401.556 673.281 401.556 697.235C401.556 699.885 401.318 702.48 400.863 704.998H419V347.352H60.7332V133.381H419V0.369904ZM161.944 439.882C161.944 463.837 142.525 483.256 118.571 483.256C94.6162 483.256 75.1973 463.837 75.1973 439.882C75.1973 415.928 94.6162 396.509 118.571 396.509C142.525 396.509 161.944 415.928 161.944 439.882ZM238.377 483.256C262.331 483.256 281.75 463.837 281.75 439.882C281.75 415.928 262.331 396.509 238.377 396.509C214.422 396.509 195.003 415.928 195.003 439.882C195.003 463.837 214.422 483.256 238.377 483.256ZM401.556 439.882C401.556 463.837 382.137 483.256 358.182 483.256C334.228 483.256 314.809 463.837 314.809 439.882C314.809 415.928 334.228 396.509 358.182 396.509C382.137 396.509 401.556 415.928 401.556 439.882ZM161.944 575.791C161.944 599.745 142.525 619.164 118.571 619.164C94.6162 619.164 75.1973 599.745 75.1973 575.791C75.1973 551.837 94.6162 532.418 118.571 532.418C142.525 532.418 161.944 551.837 161.944 575.791ZM238.377 619.164C262.331 619.164 281.75 599.745 281.75 575.791C281.75 551.837 262.331 532.418 238.377 532.418C214.422 532.418 195.003 551.837 195.003 575.791C195.003 599.745 214.422 619.164 238.377 619.164ZM401.556 575.791C401.556 599.745 382.137 619.164 358.182 619.164C334.228 619.164 314.809 599.745 314.809 575.791C314.809 551.837 334.228 532.418 358.182 532.418C382.137 532.418 401.556 551.837 401.556 575.791ZM358.127 465.908C373.202 465.908 385.423 453.687 385.423 438.612C385.423 423.537 373.202 411.316 358.127 411.316C343.052 411.316 330.831 423.537 330.831 438.612C330.831 453.687 343.052 465.908 358.127 465.908Z" fill="url(#paint0_linear)"/>
<defs>
<linearGradient id="paint0_linear" x1="15.4052" y1="15.034" x2="350.678" y2="685.58" gradientUnits="userSpaceOnUse">
<stop stop-color="white"/>
<stop offset="1" stop-color="white" stop-opacity="0"/>
</linearGradient>
</defs>
</svg>
