<svg width="700" height="94" viewBox="0 0 700 94" fill="none" xmlns="http://www.w3.org/2000/svg">
<path d="M3.18893 93.5699C2.499 93.5699 1.91256 93.3629 1.42962 92.949C1.01566 92.535 0.808685 91.9486 0.808685 91.1897V22.4732C0.808685 21.7142 1.01566 21.1278 1.42962 20.7139C1.91256 20.2999 2.499 20.0929 3.18893 20.0929H7.53545C8.29437 20.0929 8.88081 20.2999 9.29476 20.7139C9.70872 21.1278 9.91569 21.7142 9.91569 22.4732V27.0267C13.9173 21.7142 19.6091 19.058 26.9913 19.058C34.2355 19.058 39.6515 21.3693 43.2391 25.9918C46.8957 30.5453 48.8275 36.3751 49.0344 43.4814C49.1034 44.2403 49.1379 45.4132 49.1379 47C49.1379 48.5868 49.1034 49.7597 49.0344 50.5186C48.8275 57.5558 46.8957 63.3857 43.2391 68.0082C39.6515 72.6307 34.2355 74.942 26.9913 74.942C19.6091 74.942 14.0208 72.3202 10.2262 67.0768V91.1897C10.2262 91.8796 9.98469 92.4315 9.50174 92.8455C9.08779 93.3285 8.53585 93.5699 7.84592 93.5699H3.18893ZM25.0251 66.8698C29.9925 66.8698 33.6146 65.3175 35.8914 62.2128C38.1681 59.1082 39.41 55.0376 39.617 50.0012C39.686 49.3112 39.7205 48.3108 39.7205 47C39.7205 33.7534 34.822 27.1302 25.0251 27.1302C20.1956 27.1302 16.539 28.7515 14.0552 31.9941C11.6405 35.1678 10.3641 38.9279 10.2262 43.2744C10.1572 44.0333 10.1227 45.3787 10.1227 47.3105C10.1227 49.2422 10.1572 50.5876 10.2262 51.3465C10.3641 55.5551 11.675 59.2117 14.1587 62.3163C16.7115 65.352 20.3336 66.8698 25.0251 66.8698Z" fill="white"/>
<path d="M83.9878 74.942C76.3986 74.942 70.5342 72.8032 66.3947 68.5257C62.3241 64.2481 60.1509 58.5562 59.8749 51.45L59.7714 47L59.8749 42.55C60.1509 35.4437 62.3586 29.7519 66.4982 25.4743C70.7067 21.1968 76.5366 19.058 83.9878 19.058C91.439 19.058 97.2343 21.1968 101.374 25.4743C105.582 29.7519 107.825 35.4437 108.101 42.55C108.239 44.0678 108.308 45.5511 108.308 47C108.308 48.4488 108.239 49.9322 108.101 51.45C107.825 58.5562 105.617 64.2481 101.477 68.5257C97.4068 72.8032 91.5769 74.942 83.9878 74.942ZM83.9878 67.1803C88.4033 67.1803 91.8874 65.8004 94.4401 63.0407C97.0618 60.2121 98.4762 56.176 98.6832 50.9326C98.7522 50.2426 98.7867 48.9318 98.7867 47C98.7867 45.0682 98.7522 43.7573 98.6832 43.0674C98.4762 37.824 97.0618 33.8224 94.4401 31.0627C91.8874 28.234 88.4033 26.8197 83.9878 26.8197C79.5723 26.8197 76.0536 28.234 73.4319 31.0627C70.8792 33.8224 69.4993 37.824 69.2924 43.0674L69.1889 47L69.2924 50.9326C69.4993 56.176 70.8792 60.2121 73.4319 63.0407C76.0536 65.8004 79.5723 67.1803 83.9878 67.1803Z" fill="white"/>
<path d="M142.9 74.942C135.518 74.942 129.757 72.8722 125.618 68.7326C121.478 64.5241 119.305 58.6597 119.098 51.1395L118.994 47L119.098 42.8604C119.305 35.3403 121.478 29.5104 125.618 25.3708C129.757 21.1623 135.518 19.058 142.9 19.058C147.868 19.058 152.042 19.9549 155.422 21.7487C158.872 23.4735 161.425 25.6468 163.081 28.2685C164.805 30.8902 165.737 33.512 165.875 36.1337C165.944 36.7546 165.702 37.3065 165.15 37.7895C164.667 38.2724 164.116 38.5139 163.495 38.5139H158.941C158.251 38.5139 157.734 38.3759 157.389 38.1C157.044 37.755 156.699 37.1686 156.354 36.3406C155.112 32.96 153.387 30.5798 151.179 29.1999C149.041 27.7511 146.315 27.0267 143.004 27.0267C138.657 27.0267 135.208 28.372 132.655 31.0627C130.102 33.7534 128.722 37.8585 128.515 43.3779L128.412 47L128.515 50.6221C128.722 56.1415 130.102 60.2466 132.655 62.9373C135.208 65.628 138.657 66.9733 143.004 66.9733C146.384 66.9733 149.144 66.2834 151.283 64.9035C153.422 63.4547 155.112 61.04 156.354 57.6593C156.699 56.8314 157.044 56.2795 157.389 56.0035C157.734 55.6586 158.251 55.4861 158.941 55.4861H163.495C164.116 55.4861 164.667 55.7275 165.15 56.2105C165.702 56.6934 165.944 57.2454 165.875 57.8663C165.737 60.419 164.805 63.0062 163.081 65.628C161.425 68.2497 158.872 70.4574 155.422 72.2513C152.042 74.0451 147.868 74.942 142.9 74.942Z" fill="white"/>
<path d="M180.757 73.9071C180.067 73.9071 179.481 73.7001 178.998 73.2861C178.584 72.8032 178.377 72.2168 178.377 71.5268V2.8103C178.377 2.05138 178.584 1.46494 178.998 1.05099C179.481 0.637032 180.067 0.430054 180.757 0.430054H185.207C185.897 0.430054 186.449 0.67153 186.863 1.15448C187.346 1.56843 187.587 2.12037 187.587 2.8103V38.9279L208.285 21.8522C209.32 21.0933 210.044 20.6104 210.458 20.4034C210.872 20.1964 211.528 20.0929 212.425 20.0929H217.599C218.22 20.0929 218.703 20.2999 219.048 20.7139C219.462 21.0588 219.669 21.5763 219.669 22.2662C219.669 22.8871 219.289 23.5425 218.53 24.2325L194.314 44.1023L221.118 69.7675C221.877 70.5264 222.256 71.1819 222.256 71.7338C222.256 72.3547 222.049 72.8722 221.635 73.2861C221.29 73.7001 220.807 73.9071 220.186 73.9071H215.115C214.08 73.9071 213.321 73.8036 212.839 73.5966C212.425 73.3896 211.804 72.9067 210.976 72.1478L187.587 50.0012V71.5268C187.587 72.2168 187.346 72.8032 186.863 73.2861C186.449 73.7001 185.897 73.9071 185.207 73.9071H180.757Z" fill="white"/>
<path d="M250.124 74.942C243.086 74.942 237.463 72.7687 233.255 68.4222C229.046 64.0066 226.735 58.0043 226.321 50.4151L226.218 46.8965L226.321 43.4814C226.735 36.0302 229.046 30.0968 233.255 25.6813C237.463 21.2658 243.086 19.058 250.124 19.058C257.713 19.058 263.577 21.4728 267.717 26.3022C271.925 31.1317 274.029 37.686 274.029 45.9651V47.8279C274.029 48.5178 273.788 49.1043 273.305 49.5872C272.891 50.0012 272.339 50.2081 271.649 50.2081H235.739V51.1395C235.946 55.6241 237.325 59.4531 239.878 62.6268C242.431 65.8004 245.812 67.3873 250.02 67.3873C253.263 67.3873 255.884 66.7663 257.885 65.5245C259.955 64.2136 261.507 62.8683 262.542 61.4884C263.163 60.6605 263.646 60.1776 263.991 60.0396C264.336 59.8326 264.922 59.7291 265.75 59.7291H270.304C270.925 59.7291 271.442 59.9016 271.856 60.2466C272.339 60.5915 272.581 61.04 272.581 61.5919C272.581 63.1097 271.649 64.938 269.786 67.0768C267.924 69.2156 265.267 71.0784 261.818 72.6652C258.437 74.183 254.539 74.942 250.124 74.942ZM264.612 43.1709V42.8604C264.612 38.031 263.301 34.0984 260.679 31.0627C258.058 28.0271 254.539 26.5092 250.124 26.5092C245.639 26.5092 242.12 28.0271 239.568 31.0627C237.015 34.0984 235.739 38.031 235.739 42.8604V43.1709H264.612Z" fill="white"/>
<path d="M307.008 73.9071C296.314 73.9071 290.967 67.8702 290.967 55.7965V28.0615H282.791C282.101 28.0615 281.549 27.8546 281.135 27.4406C280.721 27.0267 280.515 26.4747 280.515 25.7848V22.4732C280.515 21.7832 280.721 21.2313 281.135 20.8173C281.549 20.3344 282.101 20.0929 282.791 20.0929H290.967V2.8103C290.967 2.12037 291.174 1.56843 291.588 1.15448C292.002 0.67153 292.554 0.430054 293.244 0.430054H297.797C298.487 0.430054 299.039 0.67153 299.453 1.15448C299.936 1.56843 300.177 2.12037 300.177 2.8103V20.0929H313.01C313.7 20.0929 314.252 20.3344 314.666 20.8173C315.149 21.2313 315.39 21.7832 315.39 22.4732V25.7848C315.39 26.4747 315.149 27.0267 314.666 27.4406C314.252 27.8546 313.7 28.0615 313.01 28.0615H300.177V55.0721C300.177 58.5907 300.729 61.2469 301.833 63.0407C303.006 64.8345 304.972 65.7315 307.732 65.7315H314.045C314.735 65.7315 315.287 65.9729 315.701 66.4559C316.115 66.8698 316.322 67.4218 316.322 68.1117V71.5268C316.322 72.2168 316.115 72.8032 315.701 73.2861C315.287 73.7001 314.735 73.9071 314.045 73.9071H307.008Z" fill="white"/>
<path d="M326.742 73.9071C325.984 73.9071 325.328 73.6656 324.776 73.1826C324.293 72.6997 324.052 72.0788 324.052 71.3198V57.6593C324.052 56.9004 324.293 56.2795 324.776 55.7965C325.328 55.2446 325.984 54.9686 326.742 54.9686H340.403C341.162 54.9686 341.783 55.2446 342.266 55.7965C342.749 56.2795 342.99 56.9004 342.99 57.6593V71.3198C342.99 72.0098 342.749 72.6307 342.266 73.1826C341.783 73.6656 341.162 73.9071 340.403 73.9071H326.742Z" fill="white"/>
<path d="M387.916 74.942C380.947 74.942 375.6 72.6652 371.875 68.1117V71.3198C371.875 72.0098 371.633 72.6307 371.15 73.1826C370.668 73.6656 370.047 73.9071 369.288 73.9071H356.973C356.214 73.9071 355.558 73.6656 355.006 73.1826C354.523 72.6997 354.282 72.0788 354.282 71.3198V3.01727C354.282 2.25835 354.523 1.63742 355.006 1.15448C355.558 0.67153 356.214 0.430054 356.973 0.430054H370.323C371.081 0.430054 371.702 0.67153 372.185 1.15448C372.668 1.63742 372.91 2.25835 372.91 3.01727V25.0604C376.704 21.0588 381.706 19.058 387.916 19.058C394.539 19.058 399.782 21.2313 403.646 25.5778C407.509 29.8554 409.579 35.7542 409.855 43.2744C409.924 44.1713 409.959 45.4132 409.959 47C409.959 48.5178 409.924 49.7252 409.855 50.6221C409.579 58.4183 407.509 64.4206 403.646 68.6291C399.851 72.8377 394.608 74.942 387.916 74.942ZM381.913 60.557C385.018 60.557 387.226 59.6601 388.537 57.8663C389.916 56.0035 390.71 53.4508 390.917 50.2081C390.986 49.5182 391.02 48.4488 391.02 47C391.02 45.5511 390.986 44.4818 390.917 43.7918C390.71 40.5492 389.916 38.031 388.537 36.2372C387.226 34.3744 385.018 33.443 381.913 33.443C379.016 33.443 376.808 34.3399 375.29 36.1337C373.841 37.8585 373.048 40.0662 372.91 42.757C372.841 43.6539 372.806 44.9302 372.806 46.586C372.806 48.2419 372.841 49.5527 372.91 50.5186C373.048 53.4163 373.841 55.831 375.29 57.7628C376.739 59.6256 378.947 60.557 381.913 60.557Z" fill="white"/>
<path d="M436.12 74.942C432.463 74.942 429.117 74.252 426.081 72.8722C423.114 71.4233 420.769 69.457 419.044 66.9733C417.388 64.4896 416.56 61.7644 416.56 58.7977C416.56 54.1062 418.492 50.3116 422.356 47.4139C426.288 44.4473 431.67 42.412 438.5 41.3081L451.332 39.3418V38.1C451.332 35.5472 450.815 33.6844 449.78 32.5116C448.745 31.3387 446.986 30.7523 444.502 30.7523C443.122 30.7523 441.949 30.9937 440.983 31.4767C440.087 31.9596 439.052 32.684 437.879 33.6499C436.982 34.4089 436.189 34.9608 435.499 35.3058C435.223 35.7887 434.878 36.0302 434.464 36.0302H422.459C421.769 36.0302 421.183 35.8232 420.7 35.4093C420.286 34.9263 420.113 34.3744 420.182 33.7534C420.251 31.8906 421.183 29.8209 422.976 27.5441C424.77 25.1984 427.495 23.1976 431.152 21.5418C434.809 19.8859 439.328 19.058 444.709 19.058C453.264 19.058 459.611 20.9553 463.751 24.7499C467.891 28.4755 469.96 33.5465 469.96 39.9628V71.3198C469.96 72.0098 469.719 72.6307 469.236 73.1826C468.753 73.6656 468.132 73.9071 467.373 73.9071H454.644C453.954 73.9071 453.333 73.6656 452.781 73.1826C452.298 72.6307 452.057 72.0098 452.057 71.3198V67.6977C450.539 69.8365 448.435 71.5958 445.744 72.9757C443.053 74.2865 439.845 74.942 436.12 74.942ZM441.294 62.7303C444.33 62.7303 446.779 61.7299 448.642 59.7291C450.573 57.7283 451.539 54.8306 451.539 51.0361V49.7942L442.95 51.243C437.154 52.3469 434.257 54.4167 434.257 57.4524C434.257 59.0392 434.912 60.3155 436.223 61.2814C437.603 62.2473 439.293 62.7303 441.294 62.7303Z" fill="white"/>
<path d="M483.804 73.9071C483.115 73.9071 482.494 73.6656 481.942 73.1826C481.459 72.6307 481.217 72.0098 481.217 71.3198V22.6801C481.217 21.9212 481.459 21.3003 481.942 20.8173C482.494 20.3344 483.115 20.0929 483.804 20.0929H496.534C497.292 20.0929 497.913 20.3344 498.396 20.8173C498.879 21.3003 499.121 21.9212 499.121 22.6801V26.6127C500.984 24.336 503.364 22.5077 506.261 21.1278C509.228 19.748 512.609 19.058 516.403 19.058C520.336 19.058 523.82 19.9549 526.856 21.7487C529.96 23.5425 532.375 26.1988 534.1 29.7174C535.894 33.236 536.791 37.479 536.791 42.4465V71.3198C536.791 72.0098 536.549 72.6307 536.066 73.1826C535.583 73.6656 534.962 73.9071 534.203 73.9071H520.439C519.681 73.9071 519.025 73.6656 518.473 73.1826C517.99 72.6997 517.749 72.0788 517.749 71.3198V43.0674C517.749 39.9628 516.99 37.5825 515.472 35.9267C514.023 34.2709 511.884 33.443 509.056 33.443C506.296 33.443 504.123 34.3054 502.536 36.0302C500.949 37.686 500.156 40.0318 500.156 43.0674V71.3198C500.156 72.0098 499.914 72.6307 499.431 73.1826C498.948 73.6656 498.327 73.9071 497.568 73.9071H483.804Z" fill="white"/>
<path d="M568.301 74.942C561.609 74.942 556.331 72.8377 552.468 68.6291C548.673 64.4206 546.638 58.4183 546.362 50.6221L546.258 47L546.362 43.2744C546.638 35.7542 548.707 29.8554 552.571 25.5778C556.435 21.2313 561.678 19.058 568.301 19.058C574.511 19.058 579.513 21.0588 583.307 25.0604V3.01727C583.307 2.25835 583.549 1.63742 584.032 1.15448C584.584 0.67153 585.204 0.430054 585.894 0.430054H599.244C600.003 0.430054 600.624 0.67153 601.107 1.15448C601.659 1.63742 601.935 2.25835 601.935 3.01727V71.3198C601.935 72.0788 601.659 72.6997 601.107 73.1826C600.624 73.6656 600.003 73.9071 599.244 73.9071H586.929C586.239 73.9071 585.618 73.6656 585.066 73.1826C584.584 72.6307 584.342 72.0098 584.342 71.3198V68.1117C580.616 72.6652 575.27 74.942 568.301 74.942ZM574.304 60.557C577.27 60.557 579.478 59.6256 580.927 57.7628C582.376 55.831 583.169 53.4163 583.307 50.5186C583.445 48.5868 583.514 47.276 583.514 46.586C583.514 45.8271 583.445 44.5508 583.307 42.757C583.169 40.0662 582.341 37.8585 580.823 36.1337C579.375 34.3399 577.201 33.443 574.304 33.443C571.199 33.443 568.957 34.3744 567.577 36.2372C566.266 38.031 565.507 40.5492 565.3 43.7918L565.197 47L565.3 50.2081C565.507 53.4508 566.266 56.0035 567.577 57.8663C568.957 59.6601 571.199 60.557 574.304 60.557Z" fill="white"/>
<path fill-rule="evenodd" clip-rule="evenodd" d="M649.906 14.1042C653.524 14.1042 656.457 11.1713 656.457 7.55326C656.457 3.93526 653.524 1.00229 649.906 1.00229C646.288 1.00229 643.355 3.93526 643.355 7.55326C643.355 11.1713 646.288 14.1042 649.906 14.1042ZM628.538 14.1047C632.156 14.1047 635.089 11.1717 635.089 7.55369C635.089 3.93569 632.156 1.00272 628.538 1.00272C624.92 1.00272 621.987 3.93569 621.987 7.55369C621.987 11.1717 624.92 14.1047 628.538 14.1047ZM671.273 11.0072C673.181 11.0072 674.727 9.46081 674.727 7.55326C674.727 5.6457 673.181 4.09933 671.273 4.09933C669.366 4.09933 667.819 5.6457 667.819 7.55326C667.819 9.46081 669.366 11.0072 671.273 11.0072ZM671.273 14.1042C674.891 14.1042 677.824 11.1713 677.824 7.55326C677.824 3.93526 674.891 1.00229 671.273 1.00229C667.655 1.00229 664.722 3.93526 664.722 7.55326C664.722 11.1713 667.655 14.1042 671.273 14.1042ZM696.094 7.55326C696.094 9.46081 694.548 11.0072 692.64 11.0072C690.733 11.0072 689.186 9.46081 689.186 7.55326C689.186 5.6457 690.733 4.09933 692.64 4.09933C694.548 4.09933 696.094 5.6457 696.094 7.55326ZM699.191 7.55326C699.191 11.1713 696.258 14.1042 692.64 14.1042C689.022 14.1042 686.089 11.1713 686.089 7.55326C686.089 3.93526 689.022 1.00229 692.64 1.00229C696.258 1.00229 699.191 3.93526 699.191 7.55326ZM635.089 27.4183C635.089 31.0363 632.156 33.9693 628.538 33.9693C624.92 33.9693 621.987 31.0363 621.987 27.4183C621.987 23.8003 624.92 20.8674 628.538 20.8674C632.156 20.8674 635.089 23.8003 635.089 27.4183ZM649.906 33.9693C653.524 33.9693 656.457 31.0363 656.457 27.4183C656.457 23.8003 653.524 20.8674 649.906 20.8674C646.288 20.8674 643.355 23.8003 643.355 27.4183C643.355 31.0363 646.288 33.9693 649.906 33.9693ZM677.824 27.4183C677.824 31.0363 674.891 33.9693 671.273 33.9693C667.655 33.9693 664.722 31.0363 664.722 27.4183C664.722 23.8003 667.655 20.8674 671.273 20.8674C674.891 20.8674 677.824 23.8003 677.824 27.4183ZM692.64 33.9693C696.258 33.9693 699.191 31.0363 699.191 27.4183C699.191 23.8003 696.258 20.8674 692.64 20.8674C689.022 20.8674 686.089 23.8003 686.089 27.4183C686.089 31.0363 689.022 33.9693 692.64 33.9693ZM635.089 47.2833C635.089 50.9013 632.156 53.8343 628.538 53.8343C624.92 53.8343 621.987 50.9013 621.987 47.2833C621.987 43.6653 624.92 40.7324 628.538 40.7324C632.156 40.7324 635.089 43.6653 635.089 47.2833ZM649.906 53.8343C653.524 53.8343 656.457 50.9013 656.457 47.2833C656.457 43.6653 653.524 40.7324 649.906 40.7324C646.288 40.7324 643.355 43.6653 643.355 47.2833C643.355 50.9013 646.288 53.8343 649.906 53.8343ZM677.824 47.2833C677.824 50.9013 674.891 53.8343 671.273 53.8343C667.655 53.8343 664.722 50.9013 664.722 47.2833C664.722 43.6653 667.655 40.7324 671.273 40.7324C674.891 40.7324 677.824 43.6653 677.824 47.2833ZM692.64 53.8343C696.258 53.8343 699.191 50.9013 699.191 47.2833C699.191 43.6653 696.258 40.7324 692.64 40.7324C689.022 40.7324 686.089 43.6653 686.089 47.2833C686.089 50.9013 689.022 53.8343 692.64 53.8343ZM635.089 67.1483C635.089 70.7663 632.156 73.6992 628.538 73.6992C624.92 73.6992 621.987 70.7663 621.987 67.1483C621.987 63.5303 624.92 60.5973 628.538 60.5973C632.156 60.5973 635.089 63.5303 635.089 67.1483ZM649.906 73.6992C653.524 73.6992 656.457 70.7663 656.457 67.1483C656.457 63.5303 653.524 60.5973 649.906 60.5973C646.288 60.5973 643.355 63.5303 643.355 67.1483C643.355 70.7663 646.288 73.6992 649.906 73.6992ZM677.824 67.1483C677.824 70.7663 674.891 73.6992 671.273 73.6992C667.655 73.6992 664.722 70.7663 664.722 67.1483C664.722 63.5303 667.655 60.5973 671.273 60.5973C674.891 60.5973 677.824 63.5303 677.824 67.1483ZM692.64 73.6992C696.258 73.6992 699.191 70.7663 699.191 67.1483C699.191 63.5303 696.258 60.5973 692.64 60.5973C689.022 60.5973 686.089 63.5303 686.089 67.1483C686.089 70.7663 689.022 73.6992 692.64 73.6992Z" fill="white"/>
</svg>
